<svg width="25" height="25" viewBox="0 0 25 25" fill="none" xmlns="http://www.w3.org/2000/svg">
<path fill-rule="evenodd" clip-rule="evenodd" d="M17.4766 0.5C17.9861 0.5 18.3996 0.875068 18.3996 1.33721L18.4002 2.28359C20.1972 2.39534 21.6897 2.95362 22.7461 3.91368C23.8993 4.96409 24.5061 6.47441 24.5 8.28612V18.4699C24.5 22.1893 21.8956 24.5 17.7049 24.5H7.29505C3.1043 24.5 0.5 22.1569 0.5 18.3851V8.28389C0.5 4.77566 2.82252 2.52374 6.61036 2.28398L6.61111 1.33721C6.61111 0.875068 7.02465 0.5 7.53419 0.5C8.04373 0.5 8.45726 0.875068 8.45726 1.33721L8.45689 2.2626H16.5529L16.5535 1.33721C16.5535 0.875068 16.967 0.5 17.4766 0.5ZM22.6538 10.4393H2.34615V18.3851C2.34615 21.2494 4.10368 22.8256 7.29505 22.8256H17.7049C20.8962 22.8256 22.6538 21.2784 22.6538 18.4699L22.6538 10.4393ZM17.9783 17.4632C18.4879 17.4632 18.9014 17.8383 18.9014 18.3004C18.9014 18.7626 18.4879 19.1376 17.9783 19.1376C17.4688 19.1376 17.0503 18.7626 17.0503 18.3004C17.0503 17.8383 17.4577 17.4632 17.9673 17.4632H17.9783ZM12.5168 17.4632C13.0264 17.4632 13.4399 17.8383 13.4399 18.3004C13.4399 18.7626 13.0264 19.1376 12.5168 19.1376C12.0073 19.1376 11.5888 18.7626 11.5888 18.3004C11.5888 17.8383 11.9962 17.4632 12.5057 17.4632H12.5168ZM7.04385 17.4632C7.55339 17.4632 7.96693 17.8383 7.96693 18.3004C7.96693 18.7626 7.55339 19.1376 7.04385 19.1376C6.53432 19.1376 6.11462 18.7626 6.11462 18.3004C6.11462 17.8383 6.52324 17.4632 7.03277 17.4632H7.04385ZM17.9783 13.1246C18.4879 13.1246 18.9014 13.4997 18.9014 13.9618C18.9014 14.424 18.4879 14.799 17.9783 14.799C17.4688 14.799 17.0503 14.424 17.0503 13.9618C17.0503 13.4997 17.4577 13.1246 17.9673 13.1246H17.9783ZM12.5168 13.1246C13.0264 13.1246 13.4399 13.4997 13.4399 13.9618C13.4399 14.424 13.0264 14.799 12.5168 14.799C12.0073 14.799 11.5888 14.424 11.5888 13.9618C11.5888 13.4997 11.9962 13.1246 12.5057 13.1246H12.5168ZM7.04385 13.1246C7.55339 13.1246 7.96693 13.4997 7.96693 13.9618C7.96693 14.424 7.55339 14.799 7.04385 14.799C6.53432 14.799 6.11462 14.424 6.11462 13.9618C6.11462 13.4997 6.52324 13.1246 7.03277 13.1246H7.04385ZM16.5529 3.93701H8.45689L8.45726 5.01086C8.45726 5.473 8.04373 5.84807 7.53419 5.84807C7.02465 5.84807 6.61111 5.473 6.61111 5.01086L6.61046 3.96235C3.85326 4.17242 2.34615 5.68828 2.34615 8.28389V8.76489H22.6538L22.6538 8.28389C22.6587 6.90529 22.2501 5.83367 21.439 5.09693C20.727 4.44927 19.6862 4.06248 18.4007 3.96288L18.3996 5.01086C18.3996 5.473 17.9861 5.84807 17.4766 5.84807C16.967 5.84807 16.5535 5.473 16.5535 5.01086L16.5529 3.93701Z" fill="#92979D"/>
</svg>
