<svg width="25" height="25" viewBox="0 0 25 25" fill="none" xmlns="http://www.w3.org/2000/svg">
<path fill-rule="evenodd" clip-rule="evenodd" d="M7.06008 5.3893C4.51778 7.27703 3.24662 8.2209 2.74737 9.61512C2.70732 9.72696 2.6713 9.84027 2.63937 9.95481C2.24142 11.3827 2.72695 12.9099 3.69803 15.9643C4.6691 19.0187 5.15464 20.5459 6.2978 21.462C6.3895 21.5355 6.48381 21.6055 6.58054 21.672C7.78631 22.5 9.35754 22.5 12.5 22.5C15.6425 22.5 17.2137 22.5 18.4195 21.672C18.5162 21.6055 18.6105 21.5355 18.7022 21.462C19.8454 20.5459 20.3309 19.0187 21.302 15.9643C22.273 12.9099 22.7586 11.3827 22.3606 9.95481C22.3287 9.84027 22.2927 9.72696 22.2526 9.61512C21.7534 8.2209 20.4822 7.27704 17.9399 5.38931C15.3976 3.50158 14.1265 2.5577 12.6747 2.50327C12.5583 2.49891 12.4417 2.49891 12.3253 2.50327C10.8735 2.5577 9.60238 3.50157 7.06008 5.3893ZM10.5934 17.1821C10.1985 17.1821 9.87839 17.5093 9.87839 17.9129C9.87839 18.3164 10.1985 18.6436 10.5934 18.6436H14.4066C14.8015 18.6436 15.1216 18.3164 15.1216 17.9129C15.1216 17.5093 14.8015 17.1821 14.4066 17.1821H10.5934Z" fill="#003557"/>
</svg>
