<svg width="23" height="23" viewBox="0 0 23 23" fill="none" xmlns="http://www.w3.org/2000/svg">
<path d="M14.75 8.5C14.75 10.2949 13.2949 11.75 11.5 11.75V13.25C14.1234 13.25 16.25 11.1234 16.25 8.5H14.75ZM11.5 11.75C9.70507 11.75 8.25 10.2949 8.25 8.5H6.75C6.75 11.1234 8.87665 13.25 11.5 13.25V11.75ZM8.25 8.5C8.25 6.70507 9.70507 5.25 11.5 5.25V3.75C8.87665 3.75 6.75 5.87665 6.75 8.5H8.25ZM11.5 5.25C13.2949 5.25 14.75 6.70507 14.75 8.5H16.25C16.25 5.87665 14.1234 3.75 11.5 3.75V5.25ZM8.5 16.25H14.5V14.75H8.5V16.25ZM2.25 11.5C2.25 6.39137 6.39137 2.25 11.5 2.25V0.75C5.56294 0.75 0.75 5.56294 0.75 11.5H2.25ZM11.5 2.25C16.6086 2.25 20.75 6.39137 20.75 11.5H22.25C22.25 5.56294 17.4371 0.75 11.5 0.75V2.25ZM20.75 11.5C20.75 14.1233 19.659 16.4905 17.9039 18.1748L18.9425 19.2571C20.9801 17.3016 22.25 14.5485 22.25 11.5H20.75ZM17.9039 18.1748C16.2412 19.7705 13.9858 20.75 11.5 20.75V22.25C14.3882 22.25 17.0117 21.11 18.9425 19.2571L17.9039 18.1748ZM14.5 16.25C16.076 16.25 17.3915 17.3726 17.6876 18.8621L19.1588 18.5697C18.726 16.3918 16.8055 14.75 14.5 14.75V16.25ZM11.5 20.75C9.01425 20.75 6.75884 19.7705 5.09612 18.1748L4.05751 19.2571C5.98833 21.11 8.61182 22.25 11.5 22.25V20.75ZM5.09612 18.1748C3.34103 16.4905 2.25 14.1233 2.25 11.5H0.75C0.75 14.5485 2.01989 17.3016 4.05751 19.2571L5.09612 18.1748ZM8.5 14.75C6.19445 14.75 4.27403 16.3918 3.8412 18.5697L5.31243 18.8621C5.60846 17.3726 6.92396 16.25 8.5 16.25V14.75Z" fill="#92979D"/>
</svg>
